<svg width="10" height="10" viewBox="0 0 10 10" fill="none" xmlns="http://www.w3.org/2000/svg">
<path d="M9.7128 7.83396C9.17973 7.37012 8.59032 6.97543 7.95851 6.65924C7.43264 6.40641 7.23954 6.41154 6.86773 6.67979C6.5596 6.90384 6.35418 7.11248 6.00086 7.03437C5.33421 6.73285 4.73909 6.29322 4.25479 5.74453C3.70806 5.26264 3.27007 4.66986 2.96989 4.00556C2.89491 3.64584 3.10239 3.44852 3.32424 3.13813C3.59231 2.76608 3.60053 2.57286 3.34478 2.04665C3.02994 1.41234 2.63467 0.821302 2.16875 0.288156C1.78565 -0.0951986 1.7004 -0.0109223 1.48984 0.0641041C1.27273 0.155222 1.06439 0.265995 0.867419 0.395043C0.546199 0.578738 0.286413 0.853351 0.120717 1.18436C-0.027185 1.50502 -0.199738 2.10112 0.675351 3.65921C1.32075 4.85171 2.1382 5.94257 3.10136 6.89665C4.05534 7.85984 5.1454 8.67774 6.33672 9.32421C7.8938 10.1999 8.49363 10.0272 8.80998 9.8792C9.14175 9.71479 9.41655 9.4545 9.59879 9.13202C9.72775 8.93493 9.83846 8.72645 9.92951 8.5092C10.0117 8.30262 10.098 8.21937 9.7128 7.83396Z" fill="#364154"/>
</svg>
