<svg width="16" height="16" viewBox="0 0 16 16" fill="none" xmlns="http://www.w3.org/2000/svg">
<path d="M8.00589 2.16522e-06C6.42338 -0.00116187 4.87609 0.46704 3.55972 1.34538C2.24336 2.22373 1.21706 3.47275 0.610658 4.93445C0.0042543 6.39616 -0.155012 8.00487 0.153004 9.55711C0.461021 11.1093 1.22248 12.5354 2.34107 13.6548C3.45965 14.7742 4.88511 15.5367 6.43711 15.8458C7.98912 16.155 9.59796 15.9969 11.0601 15.3916C12.5223 14.7863 13.772 13.7609 14.6513 12.4452C15.5307 11.1295 16 9.5825 16 8C16 5.87929 15.158 3.84535 13.6589 2.34523C12.1599 0.845104 10.1266 0.00156209 8.00589 2.16522e-06ZM12.0417 5.89334L7.61849 11.465C7.52097 11.5878 7.39814 11.6882 7.25834 11.7593C7.11855 11.8304 6.96508 11.8705 6.80839 11.8769H6.76131C6.61233 11.8769 6.46492 11.8465 6.32814 11.7875C6.19136 11.7285 6.06809 11.6421 5.96592 11.5337L4.02795 9.47407C3.83374 9.26218 3.73075 8.98234 3.74128 8.6951C3.75182 8.40786 3.87502 8.13631 4.08423 7.93921C4.29345 7.74212 4.57185 7.63531 4.85921 7.64192C5.14657 7.64852 5.41977 7.768 5.61971 7.9745L6.69168 9.11021L10.3293 4.52813C10.5103 4.30106 10.7742 4.1552 11.0627 4.12264C11.3513 4.09009 11.641 4.1735 11.8681 4.35454C12.0952 4.53558 12.241 4.79941 12.2736 5.08799C12.3061 5.37657 12.2227 5.66627 12.0417 5.89334Z" fill="#54BDA5"/>
</svg>
