<svg width="16" height="11" viewBox="0 0 16 11" fill="none" xmlns="http://www.w3.org/2000/svg">
<path d="M15.8698 1.02348L11.7322 5.34947C11.7248 5.35657 11.719 5.36513 11.715 5.37462C11.7111 5.38411 11.709 5.39433 11.709 5.40466C11.709 5.41499 11.7111 5.42522 11.715 5.43471C11.719 5.4442 11.7248 5.45275 11.7322 5.45985L14.6277 8.62637C14.6743 8.67398 14.7112 8.73056 14.7364 8.79285C14.7616 8.85515 14.7746 8.92195 14.7746 8.98941C14.7746 9.05686 14.7616 9.12366 14.7364 9.18596C14.7112 9.24825 14.6743 9.30483 14.6277 9.35244C14.5338 9.44847 14.4066 9.50239 14.274 9.50239C14.1414 9.50239 14.0143 9.44847 13.9203 9.35244L11.0356 6.19806C11.0209 6.18291 11.0008 6.17441 10.9799 6.17441C10.959 6.17441 10.939 6.18291 10.9242 6.19806L10.2208 6.93223C9.93297 7.23394 9.5895 7.47378 9.21041 7.63774C8.83132 7.80169 8.42421 7.88648 8.01284 7.88715C7.59239 7.88553 7.17648 7.79772 6.78954 7.62887C6.4026 7.46002 6.05242 7.21353 5.75955 6.90387L5.08277 6.19503C5.06797 6.17988 5.04793 6.17137 5.02703 6.17137C5.00613 6.17137 4.98608 6.17988 4.97129 6.19503L2.0866 9.35244C1.99267 9.44847 1.86549 9.50239 1.73292 9.50239C1.60034 9.50239 1.47317 9.44847 1.37924 9.35244C1.33267 9.30483 1.29573 9.24825 1.27052 9.18596C1.24531 9.12366 1.23233 9.05686 1.23233 8.98941C1.23233 8.92195 1.24531 8.85515 1.27052 8.79285C1.29573 8.73056 1.33267 8.67398 1.37924 8.62637L4.27478 5.46086C4.28776 5.44556 4.2949 5.42596 4.2949 5.40567C4.2949 5.38539 4.28776 5.36579 4.27478 5.35049L0.131243 1.02449C0.12068 1.01299 0.106961 1.00505 0.0919049 1.00174C0.0768485 0.998419 0.0611656 0.999878 0.0469352 1.00592C0.0327048 1.01196 0.0205988 1.0223 0.0122222 1.03556C0.00384553 1.04882 -0.000406204 1.06438 3.05746e-05 1.08018V9.73724C0.00107115 10.0718 0.131019 10.3924 0.361508 10.629C0.591997 10.8655 0.904308 10.9989 1.23027 11H14.7698C15.0957 10.9989 15.408 10.8655 15.6385 10.629C15.869 10.3924 15.999 10.0718 16 9.73724V1.07816C15.9996 1.06287 15.9948 1.04804 15.9863 1.03547C15.9779 1.0229 15.966 1.01313 15.9522 1.00734C15.9384 1.00155 15.9233 0.999989 15.9087 1.00285C15.894 1.00572 15.8805 1.01288 15.8698 1.02348Z" fill="#E1BF9C"/>
<path d="M7.49804 6.99999C7.77686 7.00097 8.05303 6.94601 8.31017 6.83836C8.5673 6.73071 8.80015 6.57258 8.99489 6.37334L15 0.267727C14.7855 0.0942878 14.5178 -0.000236194 14.2417 6.1594e-06H0.75825C0.482116 -0.000879254 0.214191 0.0937188 0 0.267727L6.00707 6.37236C6.20107 6.57102 6.43293 6.7289 6.689 6.83669C6.94506 6.94448 7.22014 7 7.49804 6.99999Z" fill="#E1BF9C"/>
</svg>
