<svg width="10" height="7" viewBox="0 0 10 7" fill="none" xmlns="http://www.w3.org/2000/svg">
<path d="M9.91778 1.01573L7.33093 3.61155C7.32628 3.61579 7.32256 3.62094 7.32002 3.62666C7.31748 3.63239 7.31617 3.63857 7.31617 3.64482C7.31617 3.65107 7.31748 3.65725 7.32002 3.66297C7.32256 3.6687 7.32628 3.67384 7.33093 3.67808L9.14065 5.5777C9.16977 5.60628 9.19288 5.64024 9.20864 5.67764C9.22441 5.71503 9.23252 5.75513 9.23252 5.79563C9.23252 5.83612 9.22441 5.87622 9.20864 5.91361C9.19288 5.95101 9.16977 5.98497 9.14065 6.01355C9.08194 6.07126 9.00239 6.10366 8.91945 6.10366C8.83652 6.10366 8.75697 6.07126 8.69825 6.01355L6.89539 4.12165C6.89084 4.11713 6.88542 4.11354 6.87946 4.1111C6.8735 4.10865 6.8671 4.10739 6.86064 4.10739C6.85418 4.10739 6.84778 4.10865 6.84182 4.1111C6.83586 4.11354 6.83044 4.11713 6.8259 4.12165L6.38643 4.56232C6.20657 4.74334 5.99189 4.88722 5.75493 4.98557C5.51798 5.08391 5.26351 5.13475 5.00639 5.1351C4.74357 5.13405 4.48362 5.08131 4.24176 4.97997C3.99991 4.87864 3.78103 4.73074 3.59796 4.54497L3.17514 4.12069C3.17059 4.11617 3.16518 4.11258 3.15921 4.11013C3.15325 4.10768 3.14685 4.10642 3.14039 4.10642C3.13393 4.10642 3.12753 4.10768 3.12157 4.11013C3.11561 4.11258 3.11019 4.11617 3.10565 4.12069L1.30278 6.01259C1.24406 6.07029 1.16451 6.1027 1.08158 6.1027C0.998645 6.1027 0.919096 6.07029 0.860381 6.01259C0.831261 5.98401 0.808155 5.95005 0.79239 5.91265C0.776624 5.87525 0.768508 5.83516 0.768508 5.79466C0.768508 5.75417 0.776624 5.71407 0.79239 5.67667C0.808155 5.63928 0.831261 5.60531 0.860381 5.57674L2.66716 3.67712C2.67542 3.66795 2.67998 3.65611 2.67998 3.64385C2.67998 3.63159 2.67542 3.61976 2.66716 3.61059L0.0822702 1.01573C0.0758387 1.00852 0.0672908 1.00346 0.0578101 1.00125C0.0483295 0.999034 0.0383849 0.99978 0.0293536 1.00338C0.0203223 1.00698 0.0126509 1.01326 0.00740156 1.02135C0.00215228 1.02943 -0.000415115 1.03893 5.46631e-05 1.04852V6.24208C0.000571453 6.44294 0.0817886 6.63542 0.225949 6.77745C0.370109 6.91948 0.565484 6.99949 0.769356 7H9.2307C9.43457 6.99949 9.62994 6.91948 9.77411 6.77745C9.91827 6.63542 9.99948 6.44294 10 6.24208V1.04852C9.99994 1.03915 9.99706 1.03002 9.99173 1.02227C9.98639 1.01452 9.97884 1.00851 9.97004 1.005C9.96123 1.00149 9.95156 1.00063 9.94226 1.00254C9.93295 1.00445 9.92443 1.00904 9.91778 1.01573Z" fill="#364154"/>
<path d="M4.49906 3.99998C4.66612 4.00083 4.83166 3.96975 4.98587 3.9086C5.14007 3.84744 5.27982 3.75745 5.39682 3.64395L9 0.153095C8.87141 0.0540041 8.71096 -4.21958e-05 8.54551 2.29634e-06H0.454489C0.288972 -0.000406143 0.1284 0.0536821 0 0.153095L3.60318 3.64395C3.71996 3.75723 3.8594 3.8471 4.01327 3.90825C4.16714 3.9694 4.33232 4.00059 4.49906 3.99998Z" fill="#364154"/>
</svg>
