<svg width="12" height="14" viewBox="0 0 12 14" fill="none" xmlns="http://www.w3.org/2000/svg">
<path d="M6.00148 7.0005C6.67957 6.99991 7.34227 6.79411 7.9058 6.40914C8.46933 6.02416 8.90839 5.47729 9.16748 4.83765C9.42657 4.19801 9.49405 3.49432 9.3614 2.81553C9.22875 2.13675 8.90193 1.51335 8.42224 1.02413C7.94254 0.534916 7.33153 0.20185 6.66642 0.0670369C6.00131 -0.067776 5.31198 0.00171712 4.68556 0.266732C4.05914 0.531746 3.52376 0.980384 3.14709 1.55593C2.77042 2.13148 2.56938 2.8081 2.56938 3.50025C2.56938 3.96017 2.65818 4.41557 2.83069 4.84044C3.00321 5.26531 3.25606 5.65131 3.5748 5.97638C3.89354 6.30144 4.27191 6.55921 4.6883 6.73493C5.10468 6.91066 5.55091 7.0009 6.00148 7.0005ZM8.57086 7.89221L7.28617 13.1265L6.42938 9.40731L7.28716 7.87607H4.71778L5.57556 9.40731L4.71778 13.1265L3.43309 7.89221C2.50976 7.93449 1.63787 8.33823 0.998546 9.01955C0.359224 9.70087 0.00161265 10.6074 0 11.5508L0 12.6887C0 13.0365 0.135351 13.37 0.376277 13.6159C0.617203 13.8618 0.94397 14 1.28469 14H10.7153C11.056 14 11.3828 13.8618 11.6237 13.6159C11.8646 13.37 12 13.0365 12 12.6887V11.5508C11.9984 10.6076 11.6409 9.70118 11.0018 9.01989C10.3627 8.33859 9.49106 7.93474 8.5679 7.89221H8.57086Z" fill="#CB8D8D"/>
</svg>
