<svg width="12" height="11" viewBox="0 0 12 11" fill="none" xmlns="http://www.w3.org/2000/svg">
<path d="M11.5411 3.80858H7.60152L6.40456 0.281149C6.37408 0.198728 6.31868 0.127552 6.24586 0.0772617C6.17304 0.0269719 6.08632 0 5.99746 0C5.9086 0 5.82188 0.0269719 5.74906 0.0772617C5.67625 0.127552 5.62084 0.198728 5.59036 0.281149L4.3934 3.80858H0.428538C0.314964 3.80883 0.206116 3.8535 0.125807 3.9328C0.0454977 4.01209 0.00026678 4.11957 9.53341e-06 4.23172C-0.00017921 4.25566 0.00243519 4.27954 0.00780086 4.30288C0.0134476 4.36271 0.0324463 4.42056 0.0634313 4.47227C0.0944162 4.52398 0.136618 4.56827 0.187004 4.60196L3.42434 6.85325L2.18258 10.4201C2.15317 10.5046 2.15155 10.5962 2.17796 10.6817C2.20437 10.7672 2.25746 10.8422 2.32965 10.8961C2.39642 10.9553 2.48085 10.9914 2.57021 10.999C2.66676 10.992 2.75945 10.9587 2.83804 10.9029L5.99746 8.68044L9.15688 10.9038C9.23487 10.9608 9.3279 10.9942 9.42471 11C9.51385 10.9937 9.59809 10.9574 9.66333 10.8971C9.73611 10.8437 9.78966 10.7686 9.81612 10.683C9.84259 10.5973 9.84058 10.5055 9.81039 10.4211L8.56766 6.85325L11.7816 4.57984L11.8595 4.51349C11.9254 4.45687 11.9712 4.38092 11.9902 4.29676C12.0092 4.21259 12.0004 4.12463 11.9652 4.04575C11.9299 3.96686 11.87 3.90119 11.7942 3.85834C11.7184 3.81549 11.6307 3.79772 11.544 3.80762L11.5411 3.80858Z" fill="#8C97AB"/>
</svg>
